<svg width="20" height="20" viewBox="0 0 20 20" fill="none" xmlns="http://www.w3.org/2000/svg">
<path fill-rule="evenodd" clip-rule="evenodd" d="M0 10C0 4.47715 4.47715 0 10 0C15.5228 0 20 4.47715 20 10C20 15.5228 15.5228 20 10 20C4.47715 20 0 15.5228 0 10ZM10 1C5.02944 1 1 5.02944 1 10C1 12.2383 1.8171 14.2858 3.16929 15.8604C3.48311 14.6565 4.1383 13.5597 5.06692 12.7084C5.81585 12.0219 6.70846 11.5264 7.66932 11.2512C6.65844 10.5253 6 9.33952 6 8C6 5.79086 7.79086 4 10 4C12.2091 4 14 5.79086 14 8C14 9.3446 13.3366 10.5342 12.3192 11.2594C13.2692 11.5363 14.1516 12.0287 14.8931 12.7084C15.8309 13.5681 16.4898 14.6782 16.7999 15.8961C18.1705 14.3168 19 12.2553 19 10C19 5.02944 14.9706 1 10 1ZM9.98576 12L10 12L10.0142 12H10.48L10.4817 12C11.8644 11.9952 13.1981 12.5113 14.2173 13.4456C15.165 14.3143 15.7761 15.4852 15.9499 16.7528C14.3637 18.1515 12.281 19 10 19C7.70194 19 5.60504 18.1387 4.01452 16.7213C4.19404 15.4658 4.80286 14.3071 5.74264 13.4456C6.76187 12.5113 8.09561 11.9952 9.47826 12L9.48 12H9.98576ZM10.0123 11C11.6635 10.9933 13 9.65274 13 8C13 6.34315 11.6569 5 10 5C8.34315 5 7 6.34315 7 8C7 9.65274 8.33649 10.9933 9.98767 11H10.0123Z" fill="white"/>
</svg>
